# Blender v2.82 (sub 7) OBJ File: 'SteeringWheel.blend'
# www.blender.org
mtllib SteeringWheel.mtl
o Circle
v 0.024902 0.022361 0.279826
v 0.024902 0.074620 0.274679
v 0.024902 0.124871 0.259436
v 0.024902 0.171182 0.234682
v 0.024902 0.211775 0.201368
v 0.024902 0.245088 0.160776
v 0.024902 0.269842 0.114465
v 0.024902 0.285085 0.064214
v 0.024902 0.290232 0.011955
v 0.024902 0.285085 -0.040304
v 0.024902 0.269842 -0.090555
v 0.024902 0.245088 -0.136867
v 0.024902 0.211775 -0.177459
v 0.024902 0.171182 -0.210773
v 0.024902 0.124871 -0.235527
v 0.024902 0.074620 -0.250770
v 0.024902 0.022361 -0.255917
v 0.024902 -0.029898 -0.250770
v 0.024902 -0.080149 -0.235526
v 0.024902 -0.126461 -0.210772
v 0.024902 -0.167053 -0.177459
v 0.024902 -0.200366 -0.136867
v 0.024902 -0.225120 -0.090555
v 0.024902 -0.240364 -0.040304
v 0.024902 -0.245511 0.011955
v 0.024902 -0.240364 0.064214
v 0.024902 -0.225120 0.114465
v 0.024902 -0.200366 0.160776
v 0.024902 -0.167053 0.201369
v 0.024902 -0.126460 0.234682
v 0.024902 -0.080149 0.259436
v 0.024902 -0.029898 0.274679
v -0.023419 0.022361 0.279826
v -0.023419 0.074620 0.274679
v -0.023419 0.124871 0.259436
v -0.023419 0.171182 0.234682
v -0.023419 0.211775 0.201368
v -0.023419 0.245088 0.160776
v -0.023419 0.269842 0.114465
v -0.023419 0.285085 0.064214
v -0.023419 0.290232 0.011955
v -0.023419 0.285085 -0.040304
v -0.023419 0.269842 -0.090555
v -0.023419 0.245088 -0.136867
v -0.023419 0.211775 -0.177459
v -0.023419 0.171182 -0.210773
v -0.023419 0.124871 -0.235527
v -0.023419 0.074620 -0.250770
v -0.023419 0.022361 -0.255917
v -0.023419 -0.029898 -0.250770
v -0.023419 -0.080149 -0.235526
v -0.023419 -0.126461 -0.210772
v -0.023419 -0.167053 -0.177459
v -0.023419 -0.200366 -0.136867
v -0.023419 -0.225120 -0.090555
v -0.023419 -0.240364 -0.040304
v -0.023419 -0.245511 0.011955
v -0.023419 -0.240364 0.064214
v -0.023419 -0.225120 0.114465
v -0.023419 -0.200366 0.160776
v -0.023419 -0.167053 0.201369
v -0.023419 -0.126460 0.234682
v -0.023419 -0.080149 0.259436
v -0.023419 -0.029898 0.274679
v 0.024902 0.064434 0.223473
v 0.024902 0.022361 0.227617
v 0.024902 0.104891 0.211201
v 0.024902 0.142176 0.191271
v 0.024902 0.174857 0.164451
v 0.024902 0.201678 0.131770
v 0.024902 0.221607 0.094485
v 0.024902 0.233879 0.054028
v 0.024902 0.238023 0.011955
v 0.024902 0.233879 -0.030119
v 0.024902 0.221607 -0.070576
v 0.024902 0.201678 -0.107861
v 0.024902 0.174857 -0.140542
v 0.024902 0.142176 -0.167362
v 0.024902 0.104891 -0.187291
v 0.024902 0.064434 -0.199564
v 0.024902 0.022361 -0.203708
v 0.024902 -0.019713 -0.199564
v 0.024902 -0.060170 -0.187291
v 0.024902 -0.097455 -0.167362
v 0.024902 -0.130136 -0.140542
v 0.024902 -0.156956 -0.107861
v 0.024902 -0.176885 -0.070576
v 0.024902 -0.189158 -0.030119
v 0.024902 -0.193302 0.011955
v 0.024902 -0.189158 0.054029
v 0.024902 -0.176885 0.094485
v 0.024902 -0.156956 0.131770
v 0.024902 -0.130135 0.164451
v 0.024902 -0.097455 0.191272
v 0.024902 -0.060169 0.211201
v 0.024902 -0.019713 0.223473
v -0.023419 0.064434 0.223473
v -0.023419 0.022361 0.227617
v -0.023419 0.104891 0.211201
v -0.023419 0.142176 0.191271
v -0.023419 0.174857 0.164451
v -0.023419 0.201678 0.131770
v -0.023419 0.221607 0.094485
v -0.023419 0.233879 0.054028
v -0.023419 0.238023 0.011955
v -0.023419 0.233879 -0.030119
v -0.023419 0.221607 -0.070576
v -0.023419 0.201678 -0.107861
v -0.023419 0.174857 -0.140542
v -0.023419 0.142176 -0.167362
v -0.023419 0.104891 -0.187291
v -0.023419 0.064434 -0.199564
v -0.023419 0.022361 -0.203708
v -0.023419 -0.019713 -0.199564
v -0.023419 -0.060170 -0.187291
v -0.023419 -0.097455 -0.167362
v -0.023419 -0.130136 -0.140542
v -0.023419 -0.156956 -0.107861
v -0.023419 -0.176885 -0.070576
v -0.023419 -0.189158 -0.030119
v -0.023419 -0.193302 0.011955
v -0.023419 -0.189158 0.054029
v -0.023419 -0.176885 0.094485
v -0.023419 -0.156956 0.131770
v -0.023419 -0.130135 0.164451
v -0.023419 -0.097455 0.191272
v -0.023419 -0.060169 0.211201
v -0.023419 -0.019713 0.223473
v -0.023419 -0.167053 0.201369
v -0.023419 -0.200366 0.160776
v -0.023419 -0.126460 0.234682
v 0.024902 -0.156956 0.131770
v 0.024902 -0.176885 0.094485
v 0.024902 -0.130135 0.164451
v -0.023419 -0.156956 0.131770
v -0.023419 -0.176885 0.094485
v -0.023419 -0.130135 0.164451
v -0.023419 -0.097455 0.191272
v 0.024902 -0.006559 0.100376
v 0.024902 -0.039240 0.073555
v -0.023419 -0.006559 0.100376
v -0.023419 -0.039240 0.073555
v 0.024902 -0.039240 0.073555
v 0.024902 -0.066060 0.040874
v -0.023419 -0.039240 0.073555
v -0.023419 -0.066060 0.040874
v 0.024902 0.004479 -0.031216
v 0.024902 0.044936 -0.043489
v 0.024902 -0.032806 -0.011287
v -0.023419 0.004479 -0.031216
v -0.023419 0.044936 -0.043489
v -0.023419 -0.032806 -0.011287
v 0.024902 0.074816 0.022389
v 0.024902 0.062544 0.062846
v 0.024902 0.078960 -0.019685
v -0.023419 0.074816 0.022389
v -0.023419 0.062544 0.062846
v -0.023419 0.078960 -0.019685
v 0.024902 0.031316 0.062501
v 0.024902 -0.001365 0.035680
v -0.023419 0.031316 0.062501
v -0.023419 -0.001365 0.035680
v 0.024902 -0.001365 0.035680
v 0.024902 -0.028185 0.003000
v -0.023419 -0.001365 0.035680
v -0.023419 -0.028185 0.003000
v 0.024902 0.011458 -0.014366
v 0.024902 0.051915 -0.026639
v 0.024902 -0.025827 0.005563
v -0.023419 0.011458 -0.014366
v -0.023419 0.051915 -0.026639
v -0.023419 -0.025827 0.005563
v 0.024902 0.037553 0.014977
v 0.024902 0.025280 0.055433
v 0.024902 0.041697 -0.027097
v -0.023419 0.037553 0.014977
v -0.023419 0.025280 0.055433
v -0.023419 0.041697 -0.027097
vt 0.000000 0.000000
vt 0.000000 0.000000
vt 0.000000 0.000000
vt 0.000000 0.000000
vt 0.000000 0.000000
vt 0.000000 0.000000
vt 0.000000 0.000000
vt 0.000000 0.000000
vt 0.000000 0.000000
vt 0.000000 0.000000
vt 0.000000 0.000000
vt 0.000000 0.000000
vt 0.000000 0.000000
vt 0.000000 0.000000
vt 0.000000 0.000000
vt 0.000000 0.000000
vt 0.000000 0.000000
vt 0.000000 0.000000
vt 0.000000 0.000000
vt 0.000000 0.000000
vt 0.000000 0.000000
vt 0.000000 0.000000
vt 0.000000 0.000000
vt 0.000000 0.000000
vt 0.000000 0.000000
vt 0.000000 0.000000
vt 0.000000 0.000000
vt 0.000000 0.000000
vt 0.000000 0.000000
vt 0.000000 0.000000
vt 0.000000 0.000000
vt 0.000000 0.000000
vt 0.000000 0.000000
vt 0.000000 0.000000
vt 0.000000 0.000000
vt 0.000000 0.000000
vt 0.000000 0.000000
vt 0.000000 0.000000
vt 0.000000 0.000000
vt 0.000000 0.000000
vt 0.000000 0.000000
vt 0.000000 0.000000
vt 0.000000 0.000000
vt 0.000000 0.000000
vt 0.000000 0.000000
vt 0.000000 0.000000
vt 0.000000 0.000000
vt 0.000000 0.000000
vt 0.000000 0.000000
vt 0.000000 0.000000
vt 0.000000 0.000000
vt 0.000000 0.000000
vt 0.000000 0.000000
vt 0.000000 0.000000
vt 0.000000 0.000000
vt 0.000000 0.000000
vt 0.000000 0.000000
vt 0.000000 0.000000
vt 0.000000 0.000000
vt 0.000000 0.000000
vt 0.000000 0.000000
vt 0.000000 0.000000
vt 0.000000 0.000000
vt 0.000000 0.000000
vt 0.000000 0.000000
vt 0.000000 0.000000
vt 0.000000 0.000000
vt 0.000000 0.000000
vt 0.000000 0.000000
vt 0.000000 0.000000
vt 0.000000 0.000000
vt 0.000000 0.000000
vt 0.000000 0.000000
vt 0.000000 0.000000
vt 0.000000 0.000000
vt 0.000000 0.000000
vt 0.000000 0.000000
vt 0.000000 0.000000
vt 0.000000 0.000000
vt 0.000000 0.000000
vt 0.000000 0.000000
vt 0.000000 0.000000
vt 0.000000 0.000000
vt 0.000000 0.000000
vt 0.000000 0.000000
vt 0.000000 0.000000
vt 0.000000 0.000000
vt 0.000000 0.000000
vt 0.000000 0.000000
vt 0.000000 0.000000
vt 0.000000 0.000000
vt 0.000000 0.000000
vt 0.000000 0.000000
vt 0.000000 0.000000
vt 0.000000 0.000000
vt 0.000000 0.000000
vt 0.000000 0.000000
vt 0.000000 0.000000
vt 0.000000 0.000000
vt 0.000000 0.000000
vt 0.000000 0.000000
vt 0.000000 0.000000
vt 0.000000 0.000000
vt 0.000000 0.000000
vt 0.000000 0.000000
vt 0.000000 0.000000
vt 0.000000 0.000000
vt 0.000000 0.000000
vt 0.000000 0.000000
vt 0.000000 0.000000
vt 0.000000 0.000000
vt 0.000000 0.000000
vt 0.000000 0.000000
vt 0.000000 0.000000
vt 0.000000 0.000000
vt 0.000000 0.000000
vt 0.000000 0.000000
vt 0.000000 0.000000
vt 0.000000 0.000000
vt 0.000000 0.000000
vt 0.000000 0.000000
vt 0.000000 0.000000
vt 0.000000 0.000000
vt 0.000000 0.000000
vt 0.000000 0.000000
vt 0.000000 0.000000
vt 0.000000 0.000000
vt 0.000000 0.000000
vt 0.000000 0.000000
vt 0.000000 0.000000
vt 0.000000 0.000000
vt 0.000000 0.000000
vt 0.000000 0.000000
vt 0.000000 0.000000
vt 0.000000 0.000000
vt 0.000000 0.000000
vt 0.000000 0.000000
vt 0.000000 0.000000
vt 0.000000 0.000000
vt 0.000000 0.000000
vt 0.000000 0.000000
vt 0.000000 0.000000
vt 0.000000 0.000000
vt 0.000000 0.000000
vt 0.000000 0.000000
vt 0.000000 0.000000
vt 0.000000 0.000000
vt 0.000000 0.000000
vt 0.000000 0.000000
vt 0.000000 0.000000
vt 0.000000 0.000000
vt 0.000000 0.000000
vt 0.000000 0.000000
vt 0.000000 0.000000
vt 0.000000 0.000000
vt 0.000000 0.000000
vt 0.000000 0.000000
vt 0.000000 0.000000
vt 0.000000 0.000000
vt 0.000000 0.000000
vt 0.000000 0.000000
vt 0.000000 0.000000
vt 0.000000 0.000000
vt 0.000000 0.000000
vt 0.000000 0.000000
vt 0.000000 0.000000
vt 0.000000 0.000000
vt 0.000000 0.000000
vt 0.000000 0.000000
vt 0.000000 0.000000
vt 0.000000 0.000000
vt 0.000000 0.000000
vt 0.000000 0.000000
vt 0.000000 0.000000
vt 0.000000 0.000000
vt 0.000000 0.000000
vt 0.000000 0.000000
vt 0.000000 0.000000
vn 0.0000 -0.4714 0.8819
vn -0.0000 -0.0980 -0.9952
vn 0.0000 0.7730 -0.6344
vn -0.0000 -0.2903 0.9569
vn 0.0000 -0.2903 -0.9569
vn 0.0000 0.6344 -0.7730
vn 0.0000 -0.0980 0.9952
vn 0.0000 -0.4714 -0.8819
vn 0.0000 0.4714 -0.8819
vn -0.0000 0.0980 0.9952
vn 0.0000 -0.6344 -0.7730
vn 0.0000 0.2903 -0.9569
vn 0.0000 0.2903 0.9569
vn 0.0000 -0.7730 -0.6344
vn -0.0000 0.0980 -0.9952
vn 0.0000 0.4714 0.8819
vn 0.0000 -0.8819 -0.4714
vn 0.0000 0.6344 0.7730
vn 0.0000 -0.9569 -0.2903
vn 0.0000 0.7730 0.6344
vn 0.0000 -0.9952 -0.0980
vn -0.0000 0.8819 0.4714
vn -0.0000 -0.9952 0.0980
vn 0.0000 0.9569 0.2903
vn 0.0000 -0.9569 0.2903
vn -0.0000 0.9952 0.0980
vn 0.0000 -0.8819 0.4714
vn 0.0000 0.9952 -0.0980
vn 0.0000 -0.7730 0.6344
vn 0.0000 0.9569 -0.2903
vn 0.0000 -0.6344 0.7730
vn 0.0000 0.8819 -0.4714
vn 0.0000 0.0000 1.0000
vn 0.0000 -0.7071 -0.7071
vn 1.0000 -0.0000 0.0000
vn -1.0000 0.0000 -0.0000
vn -0.0000 0.7071 0.7071
vn -0.0000 -0.9239 0.3827
vn 0.0000 0.9239 -0.3827
vn -0.0000 -0.1951 0.9808
vn 0.0000 0.1951 -0.9808
usemtl None
s off
f 14/1/1 46/2/1 47/3/1 15/4/1
f 1/5/2 33/6/2 34/7/2 2/8/2
f 28/9/3 60/10/3 61/11/3 29/12/3
f 15/4/4 47/3/4 48/13/4 16/14/4
f 2/8/5 34/7/5 35/15/5 3/16/5
f 29/12/6 61/11/6 62/17/6 30/18/6
f 16/14/7 48/13/7 49/19/7 17/20/7
f 3/16/8 35/15/8 36/21/8 4/22/8
f 30/18/9 62/17/9 63/23/9 31/24/9
f 17/20/10 49/19/10 50/25/10 18/26/10
f 4/22/11 36/21/11 37/27/11 5/28/11
f 31/24/12 63/23/12 64/29/12 32/30/12
f 18/26/13 50/25/13 51/31/13 19/32/13
f 5/28/14 37/27/14 38/33/14 6/34/14
f 32/30/15 64/29/15 33/6/15 1/5/15
f 19/32/16 51/31/16 52/35/16 20/36/16
f 6/34/17 38/33/17 39/37/17 7/38/17
f 20/36/18 52/35/18 53/39/18 21/40/18
f 7/38/19 39/37/19 40/41/19 8/42/19
f 21/40/20 53/39/20 54/43/20 22/44/20
f 8/42/21 40/41/21 41/45/21 9/46/21
f 22/44/22 54/43/22 55/47/22 23/48/22
f 9/46/23 41/45/23 42/49/23 10/50/23
f 23/48/24 55/47/24 56/51/24 24/52/24
f 10/50/25 42/49/25 43/53/25 11/54/25
f 24/52/26 56/51/26 57/55/26 25/56/26
f 11/54/27 43/53/27 44/57/27 12/58/27
f 25/56/28 57/55/28 58/59/28 26/60/28
f 12/58/29 44/57/29 45/61/29 13/62/29
f 26/60/30 58/59/30 59/63/30 27/64/30
f 13/62/31 45/61/31 46/2/31 14/1/31
f 27/64/32 59/63/32 60/10/32 28/9/32
f 78/65/9 79/66/9 111/67/9 110/68/9
f 66/69/10 65/70/10 97/71/10 98/72/10
f 91/73/33 92/74/33 132/75/33 133/76/33
f 79/66/12 80/77/12 112/78/12 111/67/12
f 65/70/13 67/79/13 99/80/13 97/71/13
f 94/81/34 126/82/34 141/83/34 139/84/34
f 80/77/15 81/85/15 113/86/15 112/78/15
f 67/79/16 68/87/16 100/88/16 99/80/16
f 94/81/1 95/89/1 127/90/1 126/82/1
f 81/85/2 82/91/2 114/92/2 113/86/2
f 68/87/18 69/93/18 101/94/18 100/88/18
f 95/89/4 96/95/4 128/96/4 127/90/4
f 116/97/35 115/98/35 150/99/35 152/100/35
f 69/93/20 70/101/20 102/102/20 101/94/20
f 96/95/7 66/69/7 98/72/7 128/96/7
f 82/91/36 83/103/36 147/104/36 148/105/36
f 70/101/22 71/106/22 103/107/22 102/102/22
f 84/108/11 85/109/11 117/110/11 116/97/11
f 105/111/35 104/112/35 156/113/35 158/114/35
f 85/109/14 86/115/14 118/116/14 117/110/14
f 71/106/36 72/117/36 153/118/36 154/119/36
f 86/115/17 87/120/17 119/121/17 118/116/17
f 73/122/28 74/123/28 106/124/28 105/111/28
f 87/120/19 88/125/19 120/126/19 119/121/19
f 74/123/30 75/127/30 107/128/30 106/124/30
f 88/125/21 89/129/21 121/130/21 120/126/21
f 75/127/32 76/131/32 108/132/32 107/128/32
f 89/129/23 90/133/23 122/134/23 121/130/23
f 76/131/3 77/135/3 109/136/3 108/132/3
f 90/133/25 91/73/25 123/137/25 122/134/25
f 77/135/6 78/65/6 110/68/6 109/136/6
f 125/138/33 126/82/33 138/139/33 137/140/33
f 41/45/35 40/41/35 104/112/35 105/111/35
f 14/1/36 15/4/36 79/66/36 78/65/36
f 42/49/35 41/45/35 105/111/35 106/124/35
f 15/4/36 16/14/36 80/77/36 79/66/36
f 43/53/35 42/49/35 106/124/35 107/128/35
f 16/14/36 17/20/36 81/85/36 80/77/36
f 44/57/35 43/53/35 107/128/35 108/132/35
f 17/20/36 18/26/36 82/91/36 81/85/36
f 45/61/35 44/57/35 108/132/35 109/136/35
f 18/26/36 19/32/36 83/103/36 82/91/36
f 46/2/35 45/61/35 109/136/35 110/68/35
f 19/32/36 20/36/36 84/108/36 83/103/36
f 47/3/35 46/2/35 110/68/35 111/67/35
f 20/36/36 21/40/36 85/109/36 84/108/36
f 48/13/35 47/3/35 111/67/35 112/78/35
f 21/40/36 22/44/36 86/115/36 85/109/36
f 49/19/35 48/13/35 112/78/35 113/86/35
f 22/44/36 23/48/36 87/120/36 86/115/36
f 50/25/35 49/19/35 113/86/35 114/92/35
f 23/48/36 24/52/36 88/125/36 87/120/36
f 51/31/35 50/25/35 114/92/35 115/98/35
f 24/52/36 25/56/36 89/129/36 88/125/36
f 52/35/35 51/31/35 115/98/35 116/97/35
f 25/56/36 26/60/36 90/133/36 89/129/36
f 53/39/35 52/35/35 116/97/35 117/110/35
f 26/60/36 27/64/36 91/73/36 90/133/36
f 54/43/35 53/39/35 117/110/35 118/116/35
f 27/64/36 28/9/36 92/74/36 91/73/36
f 1/5/36 2/8/36 65/70/36 66/69/36
f 55/47/35 54/43/35 118/116/35 119/121/35
f 28/9/36 29/12/36 93/141/36 92/74/36
f 2/8/36 3/16/36 67/79/36 65/70/36
f 56/51/35 55/47/35 119/121/35 120/126/35
f 29/12/36 30/18/36 94/81/36 93/141/36
f 3/16/36 4/22/36 68/87/36 67/79/36
f 57/55/35 56/51/35 120/126/35 121/130/35
f 30/18/36 31/24/36 95/89/36 94/81/36
f 4/22/36 5/28/36 69/93/36 68/87/36
f 58/59/35 57/55/35 121/130/35 122/134/35
f 31/24/36 32/30/36 96/95/36 95/89/36
f 5/28/36 6/34/36 70/101/36 69/93/36
f 59/63/35 58/59/35 122/134/35 123/137/35
f 32/30/36 1/5/36 66/69/36 96/95/36
f 6/34/36 7/38/36 71/106/36 70/101/36
f 60/10/35 59/63/35 123/137/35 124/142/35
f 34/7/35 33/6/35 98/72/35 97/71/35
f 7/38/36 8/42/36 72/117/36 71/106/36
f 62/17/33 61/11/33 129/143/33 131/144/33
f 35/15/35 34/7/35 97/71/35 99/80/35
f 8/42/36 9/46/36 73/122/36 72/117/36
f 93/141/33 125/138/33 137/140/33 134/145/33
f 36/21/35 35/15/35 99/80/35 100/88/35
f 9/46/36 10/50/36 74/123/36 73/122/36
f 63/23/35 62/17/35 126/82/35 127/90/35
f 37/27/35 36/21/35 100/88/35 101/94/35
f 10/50/36 11/54/36 75/127/36 74/123/36
f 64/29/35 63/23/35 127/90/35 128/96/35
f 38/33/35 37/27/35 101/94/35 102/102/35
f 11/54/36 12/58/36 76/131/36 75/127/36
f 33/6/35 64/29/35 128/96/35 98/72/35
f 39/37/35 38/33/35 102/102/35 103/107/35
f 12/58/36 13/62/36 77/135/36 76/131/36
f 40/41/35 39/37/35 103/107/35 104/112/35
f 13/62/36 14/1/36 78/65/36 77/135/36
f 93/141/36 94/81/36 139/84/36 140/146/36
f 133/76/27 132/75/27 135/147/27 136/148/27
f 129/143/35 130/149/35 135/147/35 137/140/35
f 131/144/35 129/143/35 137/140/35 138/139/35
f 60/10/33 124/142/33 135/147/33 130/149/33
f 126/82/33 62/17/33 131/144/33 138/139/33
f 92/74/33 93/141/33 134/145/33 132/75/33
f 123/137/33 91/73/33 133/76/33 136/148/33
f 124/142/33 123/137/33 136/148/33 135/147/33
f 61/11/33 60/10/33 130/149/33 129/143/33
f 140/146/36 139/84/36 159/150/36 160/151/36
f 142/152/37 140/146/37 160/151/37 162/153/37
f 135/147/37 132/75/37 144/154/37 146/155/37
f 137/140/35 135/147/35 146/155/35 145/156/35
f 132/75/36 134/145/36 143/157/36 144/154/36
f 126/82/35 125/138/35 142/152/35 141/83/35
f 134/145/34 137/140/34 145/156/34 143/157/34
f 125/138/37 93/141/37 140/146/37 142/152/37
f 151/158/38 148/105/38 168/159/38 171/160/38
f 149/161/39 152/100/39 172/162/39 169/163/39
f 84/108/39 116/97/39 152/100/39 149/161/39
f 83/103/36 84/108/36 149/161/36 147/104/36
f 115/98/35 114/92/35 151/158/35 150/99/35
f 114/92/38 82/91/38 148/105/38 151/158/38
f 153/118/36 155/164/36 175/165/36 173/166/36
f 158/114/35 156/113/35 176/167/35 178/168/35
f 73/122/40 105/111/40 158/114/40 155/164/40
f 72/117/36 73/122/36 155/164/36 153/118/36
f 103/107/41 71/106/41 154/119/41 157/169/41
f 104/112/35 103/107/35 157/169/35 156/113/35
f 160/151/31 159/150/31 161/170/31 162/153/31
f 164/171/29 163/172/29 165/173/29 166/174/29
f 143/157/34 145/156/34 165/173/34 163/172/34
f 145/156/35 146/155/35 166/174/35 165/173/35
f 139/84/34 141/83/34 161/170/34 159/150/34
f 141/83/35 142/152/35 162/153/35 161/170/35
f 146/155/37 144/154/37 164/171/37 166/174/37
f 144/154/36 143/157/36 163/172/36 164/171/36
f 168/159/5 167/175/5 170/176/5 171/160/5
f 167/175/8 169/163/8 172/162/8 170/176/8
f 150/99/35 151/158/35 171/160/35 170/176/35
f 148/105/36 147/104/36 167/175/36 168/159/36
f 152/100/35 150/99/35 170/176/35 172/162/35
f 147/104/36 149/161/36 169/163/36 167/175/36
f 174/177/24 173/166/24 176/167/24 177/178/24
f 173/166/26 175/165/26 178/168/26 176/167/26
f 155/164/40 158/114/40 178/168/40 175/165/40
f 157/169/41 154/119/41 174/177/41 177/178/41
f 156/113/35 157/169/35 177/178/35 176/167/35
f 154/119/36 153/118/36 173/166/36 174/177/36
